<svg width="9" height="7" viewBox="0 0 9 7" fill="none" xmlns="http://www.w3.org/2000/svg">
<path d="M7.96557 0.181135C8.0214 0.123785 8.08805 0.0782255 8.1616 0.0471229C8.23514 0.0160203 8.31412 0 8.39389 0C8.47367 0 8.55264 0.0160203 8.62619 0.0471229C8.69974 0.0782255 8.76638 0.123785 8.82222 0.181135C9.05622 0.419152 9.0595 0.803767 8.8304 1.0459L3.99239 6.80278C3.93746 6.86349 3.87081 6.91229 3.7965 6.94618C3.72219 6.98007 3.64179 6.99835 3.56023 6.99989C3.47866 7.00144 3.39764 6.98621 3.32212 6.95515C3.2466 6.92409 3.17817 6.87784 3.12101 6.81925L0.177133 3.81645C0.0635978 3.6999 0 3.54318 0 3.37995C0 3.21672 0.0635978 3.06 0.177133 2.94345C0.232972 2.8861 0.299617 2.84054 0.373164 2.80943C0.446712 2.77833 0.525685 2.76231 0.60546 2.76231C0.685235 2.76231 0.764209 2.77833 0.837756 2.80943C0.911304 2.84054 0.977948 2.8861 1.03379 2.94345L3.53093 5.4908L7.9492 0.199254C7.95429 0.192889 7.95975 0.186838 7.96557 0.181135Z" fill="#FEFFFF"/>
</svg>
