<svg width="34" height="30" viewBox="0 0 34 30" fill="none" xmlns="http://www.w3.org/2000/svg">
<path d="M0 4.28571C0 3.14907 0.447767 2.05898 1.2448 1.25526C2.04183 0.451529 3.12283 0 4.25 0H29.75C30.8772 0 31.9582 0.451529 32.7552 1.25526C33.5522 2.05898 34 3.14907 34 4.28571V25.7143C34 26.8509 33.5522 27.941 32.7552 28.7447C31.9582 29.5485 30.8772 30 29.75 30H4.25C3.12283 30 2.04183 29.5485 1.2448 28.7447C0.447767 27.941 0 26.8509 0 25.7143V4.28571ZM2.125 23.5714V25.7143C2.125 26.2826 2.34888 26.8277 2.7474 27.2295C3.14591 27.6314 3.68641 27.8571 4.25 27.8571H29.75C30.3136 27.8571 30.8541 27.6314 31.2526 27.2295C31.6511 26.8277 31.875 26.2826 31.875 25.7143V18.2143L23.8489 14.0421C23.6496 13.9415 23.424 13.9066 23.2039 13.9423C22.9839 13.9781 22.7806 14.0827 22.6227 14.2414L14.739 22.1914L9.0865 18.3943C8.88241 18.2573 8.63762 18.1956 8.39362 18.2199C8.14962 18.2441 7.92143 18.3526 7.74775 18.5271L2.125 23.5714ZM12.75 9.64286C12.75 8.79038 12.4142 7.97281 11.8164 7.37001C11.2186 6.76722 10.4079 6.42857 9.5625 6.42857C8.71712 6.42857 7.90637 6.76722 7.3086 7.37001C6.71082 7.97281 6.375 8.79038 6.375 9.64286C6.375 10.4953 6.71082 11.3129 7.3086 11.9157C7.90637 12.5185 8.71712 12.8571 9.5625 12.8571C10.4079 12.8571 11.2186 12.5185 11.8164 11.9157C12.4142 11.3129 12.75 10.4953 12.75 9.64286Z" fill="white"/>
</svg>
