<svg width="10" height="14" viewBox="0 0 10 14" fill="none" xmlns="http://www.w3.org/2000/svg">
<path d="M5 13.3333C5 13.3333 10 8.595 10 5C10 3.67392 9.47322 2.40215 8.53553 1.46447C7.59785 0.526784 6.32608 0 5 0C3.67392 0 2.40215 0.526784 1.46447 1.46447C0.526784 2.40215 1.97602e-08 3.67392 0 5C0 8.595 5 13.3333 5 13.3333ZM5 7.5C4.33696 7.5 3.70107 7.23661 3.23223 6.76777C2.76339 6.29893 2.5 5.66304 2.5 5C2.5 4.33696 2.76339 3.70107 3.23223 3.23223C3.70107 2.76339 4.33696 2.5 5 2.5C5.66304 2.5 6.29893 2.76339 6.76777 3.23223C7.23661 3.70107 7.5 4.33696 7.5 5C7.5 5.66304 7.23661 6.29893 6.76777 6.76777C6.29893 7.23661 5.66304 7.5 5 7.5Z" fill="#022071"/>
</svg>
