<svg width="22" height="22" viewBox="0 0 22 22" fill="none" xmlns="http://www.w3.org/2000/svg">
<path d="M16.1455 14.2228C17.4769 12.406 18.0732 10.1534 17.8152 7.91585C17.5571 5.67826 16.4637 3.62061 14.7537 2.15458C13.0437 0.688538 10.8432 -0.0777731 8.59241 0.00895245C6.34165 0.095678 4.20664 1.02904 2.6145 2.62232C1.02237 4.21559 0.0905274 6.35128 0.00541242 8.60209C-0.0797026 10.8529 0.688183 13.0529 2.15544 14.7618C3.6227 16.4708 5.68113 17.5627 7.91891 17.8192C10.1567 18.0757 12.4088 17.4777 14.2246 16.145H14.2233C14.2636 16.2 14.3085 16.2527 14.358 16.3031L19.6518 21.5969C19.9096 21.8549 20.2593 21.9999 20.6241 22C20.9888 22.0002 21.3387 21.8554 21.5967 21.5976C21.8547 21.3398 21.9997 20.99 21.9998 20.6253C22 20.2605 21.8552 19.9107 21.5974 19.6526L16.3036 14.3589C16.2545 14.3091 16.2016 14.2645 16.1455 14.2228ZM16.5003 8.93727C16.5003 9.93039 16.3046 10.9138 15.9246 11.8313C15.5445 12.7488 14.9875 13.5825 14.2853 14.2848C13.583 14.987 12.7493 15.5441 11.8318 15.9241C10.9143 16.3042 9.93088 16.4998 8.93776 16.4998C7.94464 16.4998 6.96124 16.3042 6.04371 15.9241C5.12619 15.5441 4.29251 14.987 3.59026 14.2848C2.88802 13.5825 2.33097 12.7488 1.95092 11.8313C1.57087 10.9138 1.37526 9.93039 1.37526 8.93727C1.37526 6.93157 2.17202 5.00802 3.59026 3.58978C5.00851 2.17153 6.93206 1.37477 8.93776 1.37477C10.9435 1.37477 12.867 2.17153 14.2853 3.58978C15.7035 5.00802 16.5003 6.93157 16.5003 8.93727Z" fill="#022071"/>
</svg>
